<mxfile host="app.diagrams.net" modified="2022-08-10T09:29:34.653Z" agent="5.0 (Macintosh; Intel Mac OS X 10_15_7) AppleWebKit/537.36 (KHTML, like Gecko) Chrome/103.0.0.0 Safari/537.36" etag="GUl4tCaYvEd8yX73VwPs" version="20.2.3" type="github">
  <diagram id="PLN7N7USWn39zHhiMWHt" name="第 1 页">
    <mxGraphModel dx="983" dy="578" grid="1" gridSize="10" guides="1" tooltips="1" connect="1" arrows="1" fold="1" page="1" pageScale="1" pageWidth="827" pageHeight="1169" math="0" shadow="0">
      <root>
        <mxCell id="0" />
        <mxCell id="1" parent="0" />
        <mxCell id="2C2mW4MFlpbeaIi6L1Nj-66" value="" style="rounded=0;whiteSpace=wrap;html=1;" vertex="1" parent="1">
          <mxGeometry x="40" y="510" width="340" height="390" as="geometry" />
        </mxCell>
        <mxCell id="2C2mW4MFlpbeaIi6L1Nj-69" style="edgeStyle=orthogonalEdgeStyle;rounded=0;orthogonalLoop=1;jettySize=auto;html=1;entryX=0.5;entryY=0;entryDx=0;entryDy=0;" edge="1" parent="1" source="2C2mW4MFlpbeaIi6L1Nj-40" target="2C2mW4MFlpbeaIi6L1Nj-46">
          <mxGeometry relative="1" as="geometry" />
        </mxCell>
        <mxCell id="2C2mW4MFlpbeaIi6L1Nj-40" value="" style="rounded=0;whiteSpace=wrap;html=1;" vertex="1" parent="1">
          <mxGeometry x="400" y="350" width="356" height="225" as="geometry" />
        </mxCell>
        <mxCell id="2C2mW4MFlpbeaIi6L1Nj-36" style="edgeStyle=orthogonalEdgeStyle;rounded=0;orthogonalLoop=1;jettySize=auto;html=1;exitX=1;exitY=0.5;exitDx=0;exitDy=0;entryX=0;entryY=0.5;entryDx=0;entryDy=0;" edge="1" parent="1" source="2C2mW4MFlpbeaIi6L1Nj-34" target="2C2mW4MFlpbeaIi6L1Nj-31">
          <mxGeometry relative="1" as="geometry" />
        </mxCell>
        <mxCell id="2C2mW4MFlpbeaIi6L1Nj-43" style="edgeStyle=orthogonalEdgeStyle;rounded=0;orthogonalLoop=1;jettySize=auto;html=1;exitX=1;exitY=0.5;exitDx=0;exitDy=0;entryX=0;entryY=0.5;entryDx=0;entryDy=0;" edge="1" parent="1" source="2C2mW4MFlpbeaIi6L1Nj-34" target="2C2mW4MFlpbeaIi6L1Nj-40">
          <mxGeometry relative="1" as="geometry" />
        </mxCell>
        <mxCell id="2C2mW4MFlpbeaIi6L1Nj-58" style="edgeStyle=orthogonalEdgeStyle;rounded=0;orthogonalLoop=1;jettySize=auto;html=1;entryX=0.012;entryY=0.639;entryDx=0;entryDy=0;entryPerimeter=0;curved=1;" edge="1" parent="1" source="2C2mW4MFlpbeaIi6L1Nj-34" target="2C2mW4MFlpbeaIi6L1Nj-15">
          <mxGeometry relative="1" as="geometry">
            <Array as="points">
              <mxPoint x="160" y="630" />
              <mxPoint x="180" y="630" />
              <mxPoint x="180" y="848" />
            </Array>
          </mxGeometry>
        </mxCell>
        <mxCell id="2C2mW4MFlpbeaIi6L1Nj-34" value="" style="rounded=0;whiteSpace=wrap;html=1;" vertex="1" parent="1">
          <mxGeometry x="50" y="220" width="190" height="230" as="geometry" />
        </mxCell>
        <mxCell id="2C2mW4MFlpbeaIi6L1Nj-38" style="edgeStyle=orthogonalEdgeStyle;rounded=0;orthogonalLoop=1;jettySize=auto;html=1;exitX=1;exitY=0.5;exitDx=0;exitDy=0;" edge="1" parent="1" source="2C2mW4MFlpbeaIi6L1Nj-31" target="2C2mW4MFlpbeaIi6L1Nj-27">
          <mxGeometry relative="1" as="geometry" />
        </mxCell>
        <mxCell id="2C2mW4MFlpbeaIi6L1Nj-31" value="" style="rounded=0;whiteSpace=wrap;html=1;" vertex="1" parent="1">
          <mxGeometry x="315" y="60" width="190" height="230" as="geometry" />
        </mxCell>
        <mxCell id="2C2mW4MFlpbeaIi6L1Nj-70" style="edgeStyle=orthogonalEdgeStyle;rounded=0;orthogonalLoop=1;jettySize=auto;html=1;exitX=1;exitY=0.5;exitDx=0;exitDy=0;entryX=1;entryY=0.5;entryDx=0;entryDy=0;" edge="1" parent="1" source="2C2mW4MFlpbeaIi6L1Nj-27" target="2C2mW4MFlpbeaIi6L1Nj-46">
          <mxGeometry relative="1" as="geometry" />
        </mxCell>
        <mxCell id="2C2mW4MFlpbeaIi6L1Nj-27" value="" style="rounded=0;whiteSpace=wrap;html=1;" vertex="1" parent="1">
          <mxGeometry x="606" y="60" width="190" height="230" as="geometry" />
        </mxCell>
        <mxCell id="2C2mW4MFlpbeaIi6L1Nj-3" value="Internet disclosure" style="rounded=1;whiteSpace=wrap;html=1;fillColor=#dae8fc;strokeColor=#6c8ebf;" vertex="1" parent="1">
          <mxGeometry x="75" y="270" width="120" height="60" as="geometry" />
        </mxCell>
        <mxCell id="2C2mW4MFlpbeaIi6L1Nj-4" value="Security Scan" style="rounded=1;whiteSpace=wrap;html=1;fillColor=#dae8fc;strokeColor=#6c8ebf;" vertex="1" parent="1">
          <mxGeometry x="75" y="350" width="120" height="60" as="geometry" />
        </mxCell>
        <mxCell id="2C2mW4MFlpbeaIi6L1Nj-5" value="Intelligence Input" style="text;html=1;strokeColor=none;fillColor=none;align=center;verticalAlign=middle;whiteSpace=wrap;rounded=0;" vertex="1" parent="1">
          <mxGeometry x="75" y="225" width="125" height="40" as="geometry" />
        </mxCell>
        <mxCell id="2C2mW4MFlpbeaIi6L1Nj-13" style="edgeStyle=orthogonalEdgeStyle;rounded=0;orthogonalLoop=1;jettySize=auto;html=1;exitX=1;exitY=0.5;exitDx=0;exitDy=0;entryX=0;entryY=0.5;entryDx=0;entryDy=0;" edge="1" parent="1" source="2C2mW4MFlpbeaIi6L1Nj-8" target="2C2mW4MFlpbeaIi6L1Nj-10">
          <mxGeometry relative="1" as="geometry" />
        </mxCell>
        <mxCell id="2C2mW4MFlpbeaIi6L1Nj-8" value="DNS" style="rounded=1;whiteSpace=wrap;html=1;fillColor=#dae8fc;strokeColor=#6c8ebf;" vertex="1" parent="1">
          <mxGeometry x="420" y="390" width="120" height="60" as="geometry" />
        </mxCell>
        <mxCell id="2C2mW4MFlpbeaIi6L1Nj-14" style="edgeStyle=orthogonalEdgeStyle;rounded=0;orthogonalLoop=1;jettySize=auto;html=1;exitX=1;exitY=0.5;exitDx=0;exitDy=0;entryX=0;entryY=0.5;entryDx=0;entryDy=0;" edge="1" parent="1" source="2C2mW4MFlpbeaIi6L1Nj-9" target="2C2mW4MFlpbeaIi6L1Nj-10">
          <mxGeometry relative="1" as="geometry" />
        </mxCell>
        <mxCell id="2C2mW4MFlpbeaIi6L1Nj-9" value="Firewall" style="rounded=1;whiteSpace=wrap;html=1;fillColor=#dae8fc;strokeColor=#6c8ebf;" vertex="1" parent="1">
          <mxGeometry x="420" y="495" width="120" height="60" as="geometry" />
        </mxCell>
        <mxCell id="2C2mW4MFlpbeaIi6L1Nj-10" value="Security Team Server" style="rounded=1;whiteSpace=wrap;html=1;fillColor=#dae8fc;strokeColor=#6c8ebf;" vertex="1" parent="1">
          <mxGeometry x="600" y="435" width="140" height="75" as="geometry" />
        </mxCell>
        <mxCell id="2C2mW4MFlpbeaIi6L1Nj-60" style="edgeStyle=orthogonalEdgeStyle;rounded=0;orthogonalLoop=1;jettySize=auto;html=1;exitX=1;exitY=0.5;exitDx=0;exitDy=0;" edge="1" parent="1" source="2C2mW4MFlpbeaIi6L1Nj-15" target="2C2mW4MFlpbeaIi6L1Nj-46">
          <mxGeometry relative="1" as="geometry" />
        </mxCell>
        <mxCell id="2C2mW4MFlpbeaIi6L1Nj-15" value="Internal Registry" style="rounded=1;whiteSpace=wrap;html=1;fillColor=#dae8fc;strokeColor=#6c8ebf;" vertex="1" parent="1">
          <mxGeometry x="205" y="810" width="120" height="60" as="geometry" />
        </mxCell>
        <mxCell id="2C2mW4MFlpbeaIi6L1Nj-19" style="edgeStyle=orthogonalEdgeStyle;rounded=0;orthogonalLoop=1;jettySize=auto;html=1;exitX=0.875;exitY=0.5;exitDx=0;exitDy=0;exitPerimeter=0;entryX=0;entryY=0.5;entryDx=0;entryDy=0;" edge="1" parent="1" source="2C2mW4MFlpbeaIi6L1Nj-16" target="2C2mW4MFlpbeaIi6L1Nj-18">
          <mxGeometry relative="1" as="geometry" />
        </mxCell>
        <mxCell id="2C2mW4MFlpbeaIi6L1Nj-16" value="open source packages" style="ellipse;shape=cloud;whiteSpace=wrap;html=1;" vertex="1" parent="1">
          <mxGeometry x="40" y="520" width="120" height="80" as="geometry" />
        </mxCell>
        <mxCell id="2C2mW4MFlpbeaIi6L1Nj-22" style="edgeStyle=orthogonalEdgeStyle;rounded=0;orthogonalLoop=1;jettySize=auto;html=1;exitX=0.5;exitY=1;exitDx=0;exitDy=0;entryX=0.5;entryY=0;entryDx=0;entryDy=0;" edge="1" parent="1" source="2C2mW4MFlpbeaIi6L1Nj-17" target="2C2mW4MFlpbeaIi6L1Nj-21">
          <mxGeometry relative="1" as="geometry" />
        </mxCell>
        <mxCell id="2C2mW4MFlpbeaIi6L1Nj-17" value="Security Scan" style="rounded=1;whiteSpace=wrap;html=1;fillColor=#dae8fc;strokeColor=#6c8ebf;" vertex="1" parent="1">
          <mxGeometry x="205" y="620" width="120" height="60" as="geometry" />
        </mxCell>
        <mxCell id="2C2mW4MFlpbeaIi6L1Nj-20" value="" style="edgeStyle=orthogonalEdgeStyle;rounded=0;orthogonalLoop=1;jettySize=auto;html=1;" edge="1" parent="1" source="2C2mW4MFlpbeaIi6L1Nj-18" target="2C2mW4MFlpbeaIi6L1Nj-17">
          <mxGeometry relative="1" as="geometry" />
        </mxCell>
        <mxCell id="2C2mW4MFlpbeaIi6L1Nj-18" value="Approval Ticket" style="shape=parallelogram;perimeter=parallelogramPerimeter;whiteSpace=wrap;html=1;fixedSize=1;" vertex="1" parent="1">
          <mxGeometry x="200" y="530" width="130" height="60" as="geometry" />
        </mxCell>
        <mxCell id="2C2mW4MFlpbeaIi6L1Nj-23" style="edgeStyle=orthogonalEdgeStyle;rounded=0;orthogonalLoop=1;jettySize=auto;html=1;exitX=0.5;exitY=1;exitDx=0;exitDy=0;entryX=0.5;entryY=0;entryDx=0;entryDy=0;" edge="1" parent="1" source="2C2mW4MFlpbeaIi6L1Nj-21" target="2C2mW4MFlpbeaIi6L1Nj-15">
          <mxGeometry relative="1" as="geometry" />
        </mxCell>
        <mxCell id="2C2mW4MFlpbeaIi6L1Nj-48" style="edgeStyle=orthogonalEdgeStyle;rounded=0;orthogonalLoop=1;jettySize=auto;html=1;exitX=1;exitY=0.5;exitDx=0;exitDy=0;entryX=0;entryY=0.5;entryDx=0;entryDy=0;" edge="1" parent="1" source="2C2mW4MFlpbeaIi6L1Nj-21" target="2C2mW4MFlpbeaIi6L1Nj-46">
          <mxGeometry relative="1" as="geometry" />
        </mxCell>
        <mxCell id="2C2mW4MFlpbeaIi6L1Nj-21" value="approve or not" style="rhombus;whiteSpace=wrap;html=1;" vertex="1" parent="1">
          <mxGeometry x="210" y="700" width="110" height="80" as="geometry" />
        </mxCell>
        <mxCell id="2C2mW4MFlpbeaIi6L1Nj-24" value="YES" style="text;html=1;strokeColor=none;fillColor=none;align=center;verticalAlign=middle;whiteSpace=wrap;rounded=0;" vertex="1" parent="1">
          <mxGeometry x="260" y="780" width="60" height="30" as="geometry" />
        </mxCell>
        <mxCell id="2C2mW4MFlpbeaIi6L1Nj-25" value="Auto Create Jira" style="rounded=1;whiteSpace=wrap;html=1;fillColor=#dae8fc;strokeColor=#6c8ebf;" vertex="1" parent="1">
          <mxGeometry x="646" y="110" width="120" height="60" as="geometry" />
        </mxCell>
        <mxCell id="2C2mW4MFlpbeaIi6L1Nj-26" value="Block CI" style="rounded=1;whiteSpace=wrap;html=1;fillColor=#dae8fc;strokeColor=#6c8ebf;" vertex="1" parent="1">
          <mxGeometry x="646" y="190" width="120" height="60" as="geometry" />
        </mxCell>
        <mxCell id="2C2mW4MFlpbeaIi6L1Nj-28" value="Space CI" style="text;html=1;strokeColor=none;fillColor=none;align=center;verticalAlign=middle;whiteSpace=wrap;rounded=0;" vertex="1" parent="1">
          <mxGeometry x="666" y="70" width="60" height="30" as="geometry" />
        </mxCell>
        <mxCell id="2C2mW4MFlpbeaIi6L1Nj-32" value="SCA Scan" style="rounded=1;whiteSpace=wrap;html=1;fillColor=#ffe6cc;strokeColor=#d79b00;" vertex="1" parent="1">
          <mxGeometry x="350" y="110" width="120" height="60" as="geometry" />
        </mxCell>
        <mxCell id="2C2mW4MFlpbeaIi6L1Nj-33" value="Harbor Scan" style="rounded=1;whiteSpace=wrap;html=1;fillColor=#ffe6cc;strokeColor=#d79b00;" vertex="1" parent="1">
          <mxGeometry x="350" y="190" width="120" height="60" as="geometry" />
        </mxCell>
        <mxCell id="2C2mW4MFlpbeaIi6L1Nj-35" value="SDLC Toolchain" style="text;html=1;strokeColor=none;fillColor=none;align=center;verticalAlign=middle;whiteSpace=wrap;rounded=0;" vertex="1" parent="1">
          <mxGeometry x="350" y="65" width="125" height="40" as="geometry" />
        </mxCell>
        <mxCell id="2C2mW4MFlpbeaIi6L1Nj-37" value="component&amp;nbsp;" style="text;html=1;strokeColor=none;fillColor=none;align=center;verticalAlign=middle;whiteSpace=wrap;rounded=0;" vertex="1" parent="1">
          <mxGeometry x="240" y="140" width="60" height="30" as="geometry" />
        </mxCell>
        <mxCell id="2C2mW4MFlpbeaIi6L1Nj-39" value="Integration" style="text;html=1;strokeColor=none;fillColor=none;align=center;verticalAlign=middle;whiteSpace=wrap;rounded=0;" vertex="1" parent="1">
          <mxGeometry x="526" y="140" width="60" height="30" as="geometry" />
        </mxCell>
        <mxCell id="2C2mW4MFlpbeaIi6L1Nj-41" value="Incident Response" style="text;html=1;strokeColor=none;fillColor=none;align=center;verticalAlign=middle;whiteSpace=wrap;rounded=0;" vertex="1" parent="1">
          <mxGeometry x="540" y="360" width="110" height="30" as="geometry" />
        </mxCell>
        <mxCell id="2C2mW4MFlpbeaIi6L1Nj-44" value="IoC" style="text;html=1;strokeColor=none;fillColor=none;align=center;verticalAlign=middle;whiteSpace=wrap;rounded=0;" vertex="1" parent="1">
          <mxGeometry x="325" y="430" width="60" height="30" as="geometry" />
        </mxCell>
        <mxCell id="2C2mW4MFlpbeaIi6L1Nj-46" value="End" style="rounded=0;whiteSpace=wrap;html=1;" vertex="1" parent="1">
          <mxGeometry x="475" y="710" width="120" height="60" as="geometry" />
        </mxCell>
        <mxCell id="2C2mW4MFlpbeaIi6L1Nj-49" value="NO" style="text;html=1;strokeColor=none;fillColor=none;align=center;verticalAlign=middle;whiteSpace=wrap;rounded=0;" vertex="1" parent="1">
          <mxGeometry x="315" y="710" width="60" height="30" as="geometry" />
        </mxCell>
        <mxCell id="2C2mW4MFlpbeaIi6L1Nj-59" value="component&amp;nbsp;" style="text;html=1;strokeColor=none;fillColor=none;align=center;verticalAlign=middle;whiteSpace=wrap;rounded=0;" vertex="1" parent="1">
          <mxGeometry x="115" y="740" width="60" height="30" as="geometry" />
        </mxCell>
        <mxCell id="2C2mW4MFlpbeaIi6L1Nj-62" value="" style="endArrow=classic;html=1;rounded=0;" edge="1" parent="1">
          <mxGeometry width="50" height="50" relative="1" as="geometry">
            <mxPoint x="705.47" y="20" as="sourcePoint" />
            <mxPoint x="705.47" y="60" as="targetPoint" />
          </mxGeometry>
        </mxCell>
        <mxCell id="2C2mW4MFlpbeaIi6L1Nj-65" value="Internal Registry" style="text;html=1;strokeColor=none;fillColor=none;align=center;verticalAlign=middle;whiteSpace=wrap;rounded=0;" vertex="1" parent="1">
          <mxGeometry x="630" y="20" width="60" height="30" as="geometry" />
        </mxCell>
        <mxCell id="2C2mW4MFlpbeaIi6L1Nj-67" value="Approval Process" style="text;html=1;strokeColor=none;fillColor=none;align=center;verticalAlign=middle;whiteSpace=wrap;rounded=0;" vertex="1" parent="1">
          <mxGeometry x="75" y="660" width="60" height="30" as="geometry" />
        </mxCell>
      </root>
    </mxGraphModel>
  </diagram>
</mxfile>
